<?xml version="1.0" encoding="UTF-8"?>
<svg version="1.1" xmlns="http://www.w3.org/2000/svg" width="512" height="512">
<path d="M0 0 C1.01790619 0.00215515 2.03581238 0.0043103 3.08456421 0.00653076 C17.69363523 0.05620146 32.02575853 0.30709809 46.375 3.3125 C47.34985352 3.51117676 48.32470703 3.70985352 49.32910156 3.91455078 C97.7109774 14.03517194 141.69928269 35.9516877 177.375 70.3125 C178.3640332 71.26068604 178.3640332 71.26068604 179.37304688 72.22802734 C188.86130305 81.37247479 197.6012044 90.66984009 205.375 101.3125 C206.23306152 102.46355017 207.09113451 103.61459177 207.94921875 104.765625 C213.98736829 112.95680614 219.34595521 121.47054105 224.375 130.3125 C224.73948242 130.94430176 225.10396484 131.57610352 225.47949219 132.22705078 C247.08534998 169.97532572 256.85198095 212.74189997 256.6875 255.9375 C256.68534485 256.95540619 256.6831897 257.97331238 256.68096924 259.02206421 C256.63129854 273.63113523 256.38040191 287.96325853 253.375 302.3125 C253.07698486 303.77478027 253.07698486 303.77478027 252.77294922 305.26660156 C242.65232806 353.6484774 220.7358123 397.63678269 186.375 433.3125 C185.74287598 433.97185547 185.11075195 434.63121094 184.45947266 435.31054688 C175.31502521 444.79880305 166.01765991 453.5387044 155.375 461.3125 C154.22394983 462.17056152 153.07290823 463.02863451 151.921875 463.88671875 C143.73224019 469.92427396 135.22961724 475.30707302 126.375 480.3125 C125.66778809 480.7146875 124.96057617 481.116875 124.23193359 481.53125 C101.09654164 494.5566741 75.92537591 503.30551461 49.9375 508.625 C49.21860596 508.77235596 48.49971191 508.91971191 47.7590332 509.0715332 C33.08339502 511.86090125 18.55831162 512.66142619 3.64770508 512.62817383 C0.70811513 512.6250221 -2.2304558 512.64854926 -5.16992188 512.67382812 C-18.54306192 512.71848737 -31.43916711 511.51301542 -44.625 509.3125 C-46.33055054 509.03031616 -46.33055054 509.03031616 -48.07055664 508.74243164 C-91.33802759 500.97044532 -132.38793216 480.98345309 -165.625 452.3125 C-166.37007813 451.67828125 -167.11515625 451.0440625 -167.8828125 450.390625 C-181.38779833 438.57948485 -194.05918743 425.82889772 -204.625 411.3125 C-205.48149066 410.16255169 -206.33826433 409.01281411 -207.1953125 407.86328125 C-213.23534209 399.67315742 -218.61867614 391.16870382 -223.625 382.3125 C-224.0271875 381.60528809 -224.429375 380.89807617 -224.84375 380.16943359 C-237.8691741 357.03404164 -246.61801461 331.86287591 -251.9375 305.875 C-252.08485596 305.15610596 -252.23221191 304.43721191 -252.3840332 303.6965332 C-255.35789088 288.05024391 -255.99800362 272.57681954 -255.9375 256.6875 C-255.93534485 255.66959381 -255.9331897 254.65168762 -255.93096924 253.60293579 C-255.88129854 238.99386477 -255.63040191 224.66174147 -252.625 210.3125 C-252.42632324 209.33764648 -252.22764648 208.36279297 -252.02294922 207.35839844 C-241.90232806 158.9765226 -219.9858123 114.98821731 -185.625 79.3125 C-184.99287598 78.65314453 -184.36075195 77.99378906 -183.70947266 77.31445312 C-174.56502521 67.82619695 -165.26765991 59.0862956 -154.625 51.3125 C-153.47394983 50.45443848 -152.32290823 49.59636549 -151.171875 48.73828125 C-142.98224019 42.70072604 -134.47961724 37.31792698 -125.625 32.3125 C-124.91778809 31.9103125 -124.21057617 31.508125 -123.48193359 31.09375 C-100.34654164 18.0683259 -75.17537591 9.31948539 -49.1875 4 C-48.46860596 3.85264404 -47.74971191 3.70528809 -47.0090332 3.5534668 C-31.36274391 0.57960912 -15.88931954 -0.06050362 0 0 Z " fill="#E04F5F" transform="translate(255.625,-0.3125)"/>
<path d="M0 0 C1.36194654 -0.00576166 2.7238853 -0.0137031 4.0858078 -0.02363622 C7.82758879 -0.04452735 11.56873295 -0.03418461 15.31051636 -0.01870513 C19.34605241 -0.00740461 23.38147799 -0.02484784 27.41699219 -0.03860474 C35.32224142 -0.06085565 43.2272535 -0.05602776 51.13251209 -0.04154153 C57.5563788 -0.03025655 63.98017897 -0.02871517 70.40405273 -0.03416061 C71.31780088 -0.03492678 72.23154902 -0.03569294 73.17298651 -0.03648233 C75.0291602 -0.03808093 76.88533388 -0.03970199 78.74150753 -0.04134528 C96.15309574 -0.05560821 113.5645524 -0.03920154 130.97611904 -0.01234345 C145.92099421 0.00999583 160.86567521 0.00611585 175.81054688 -0.01693726 C193.15917408 -0.04368567 210.50768593 -0.05423486 227.85633087 -0.03887594 C229.70573423 -0.03728317 231.55513762 -0.03571131 233.40454102 -0.03416061 C234.76950785 -0.03300355 234.76950785 -0.03300355 236.16204977 -0.03182311 C242.5793341 -0.02750323 248.99654535 -0.03479885 255.41381836 -0.04655838 C263.23276788 -0.06057128 271.05146638 -0.05680903 278.87038708 -0.03015466 C282.86095689 -0.01700002 286.85110795 -0.01189174 290.8416748 -0.02840042 C294.49353181 -0.04327957 298.14458125 -0.03514679 301.79636478 -0.00851266 C303.74593494 -0.00026508 305.69556099 -0.0166239 307.64507294 -0.03379881 C316.02672281 0.06070729 316.02672281 0.06070729 320.18393707 2.78083992 C322.20372438 6.13166868 322.5282768 8.03609194 322.52575684 11.93508911 C322.53696564 13.2052739 322.54817444 14.47545868 322.5597229 15.78413391 C322.54681289 17.18426971 322.5333988 18.58440094 322.51953125 19.98452759 C322.52303369 21.46482479 322.52869365 22.94511822 322.53634644 24.42539978 C322.55058682 28.44002457 322.53354077 32.4539638 322.51006126 36.46852303 C322.48994409 40.6715684 322.49583227 44.87458555 322.49816895 49.07766724 C322.49811538 56.13576555 322.47836413 63.19359608 322.44628906 70.25161743 C322.40939659 78.40929771 322.4006136 86.56662721 322.40758657 94.72438002 C322.41389394 102.57488201 322.40313298 110.42526384 322.38362122 118.27574158 C322.37545087 121.61534844 322.37273699 124.95489386 322.37431335 128.29450989 C322.37519293 132.22788972 322.36095666 136.16093673 322.33508682 140.09422874 C322.32793063 141.53696771 322.32583878 142.9797421 322.32920456 144.42249489 C322.33292487 146.39326841 322.31631532 148.36404896 322.29870605 150.33474731 C322.29497734 151.43717018 322.29124863 152.53959305 322.28740692 153.67542267 C321.85278173 157.0328687 320.90335813 158.92585814 318.90429688 161.63491821 C316.30660943 162.93376194 314.42610023 162.76271641 311.51564217 162.76634598 C310.36460632 162.77018712 309.21357048 162.77402827 308.02765477 162.77798581 C306.75219599 162.77711933 305.47673722 162.77625285 304.16262817 162.77536011 C302.80256785 162.77794237 301.44250829 162.78095514 300.08244979 162.78436351 C296.33216779 162.79245297 292.5819049 162.79422416 288.83161521 162.79496098 C284.7919944 162.79680814 280.7523836 162.80435373 276.71276855 162.81109619 C267.87405869 162.82469353 259.03535335 162.83070632 250.19663477 162.83510685 C244.68116694 162.83786673 239.16570087 162.8421036 233.65023422 162.84661102 C218.38926109 162.85880519 203.12828938 162.86910443 187.86731148 162.87248611 C186.40145864 162.87281546 186.40145864 162.87281546 184.90599262 162.87315147 C183.92637782 162.87336974 182.94676302 162.87358802 181.93746293 162.87381291 C179.95228648 162.87425639 177.96711004 162.87470295 175.98193359 162.87515259 C174.99721096 162.87537402 174.01248833 162.87559545 172.99792562 162.87582359 C157.03488014 162.87977325 141.07188026 162.89723174 125.1088524 162.92051211 C108.73262824 162.94420297 92.35642698 162.95668692 75.98018539 162.95785403 C66.78034538 162.95877204 57.5805648 162.96455581 48.38074112 162.98267365 C40.54822052 162.99804406 32.7157777 163.00321323 24.88324489 162.99493554 C20.8848007 162.99101823 16.8865133 162.99201103 12.88808823 163.00599289 C9.23019733 163.01866734 5.57258207 163.01759169 1.91469191 163.00540218 C-0.04074101 163.00249897 -1.99617841 163.01442967 -3.95157421 163.02682424 C-5.10782554 163.02023439 -6.26407688 163.01364455 -7.45536613 163.00685501 C-8.45522478 163.0074521 -9.45508343 163.00804919 -10.48524082 163.00866437 C-13.54309649 162.57086383 -14.89538462 161.77640001 -17.09570312 159.63491821 C-18.1797301 156.38283728 -18.23233149 153.99801794 -18.24960327 150.57525635 C-18.25820374 149.30782089 -18.2668042 148.04038544 -18.27566528 146.73454285 C-18.28010035 145.32714885 -18.28439873 143.91975441 -18.28857422 142.51235962 C-18.2964765 141.03236194 -18.30474553 139.55236618 -18.31335449 138.07237244 C-18.33955417 133.2104272 -18.35487741 128.34847342 -18.36914062 123.48648071 C-18.37450065 121.81281911 -18.37987816 120.13915756 -18.38527298 118.46549606 C-18.40689631 111.50491138 -18.42563414 104.54432901 -18.43689537 97.58371925 C-18.45314364 87.60635223 -18.48634865 77.62937404 -18.54329622 67.65215361 C-18.58197248 60.63721095 -18.60152514 53.62237241 -18.60681593 46.60732591 C-18.61047184 42.41685954 -18.62251837 38.2268081 -18.65491867 34.03645706 C-18.68495996 30.0948439 -18.69132567 26.15389761 -18.67953491 22.21219444 C-18.67931386 20.76619037 -18.6876453 19.3201557 -18.70518875 17.87425804 C-18.72784772 15.89915106 -18.71661108 13.92374215 -18.70370483 11.94854736 C-18.70867005 10.29101661 -18.70867005 10.29101661 -18.71373558 8.60000038 C-18.09570312 5.63491821 -18.09570312 5.63491821 -16.37618446 2.77999878 C-11.18202712 -0.61641926 -6.07635921 -0.05353183 0 0 Z " fill="#FEFDFD" transform="translate(104.095703125,174.36508178710938)"/>
<path d="M0 0 C0.87481018 -0.00630432 1.74962036 -0.01260864 2.65093994 -0.019104 C4.05880768 -0.01303131 4.05880768 -0.01303131 5.49511719 -0.00683594 C6.95640045 -0.00970612 6.95640045 -0.00970612 8.44720459 -0.01263428 C10.50826272 -0.01399455 12.56932946 -0.01030913 14.63037109 -0.00195312 C17.76647512 0.00870236 20.90200026 -0.00182998 24.03808594 -0.01464844 C26.04459761 -0.01332591 28.05110892 -0.0107616 30.05761719 -0.00683594 C30.98809875 -0.0108844 31.91858032 -0.01493286 32.8772583 -0.019104 C46.12426929 0.07500422 57.92000844 4.87784249 67.57714844 14.06347656 C70.90245499 17.77882901 73.38493644 21.77454359 75.54199219 26.25878906 C75.88472168 26.86899902 76.22745117 27.47920898 76.58056641 28.10791016 C80.56480674 36.19508541 80.14713993 44.63506089 80.06347656 53.44384766 C80.04209138 56.12137009 80.06331629 58.79619353 80.08886719 61.47363281 C80.11292049 76.11164159 77.63267695 89.0671039 67.64746094 100.41113281 C57.03068675 110.67335795 44.78830141 114.38273218 30.32324219 114.49707031 C29.34713989 114.50514206 28.3710376 114.51321381 27.36535645 114.52153015 C25.30787913 114.53531616 23.25037946 114.54606265 21.19287109 114.55395508 C19.09221684 114.56551144 16.99159277 114.58602037 14.89111328 114.61547852 C11.84745439 114.65812882 8.80466267 114.67431651 5.76074219 114.68457031 C4.82621216 114.7020784 3.89168213 114.71958649 2.92883301 114.73762512 C-2.67901059 114.71900538 -6.10028229 114.15566714 -10.45800781 110.25878906 C-12.17065505 107.4370193 -12.71015023 105.33551761 -12.72543335 102.05299377 C-12.73396332 101.22171967 -12.74249329 100.39044556 -12.75128174 99.53398132 C-12.75037537 98.63049454 -12.74946899 97.72700775 -12.74853516 96.79614258 C-12.75525238 95.83798645 -12.7619696 94.87983032 -12.76889038 93.89263916 C-12.78789346 90.72427185 -12.79179559 87.55611607 -12.79394531 84.38769531 C-12.80037102 82.18578504 -12.80709921 79.98387563 -12.81411743 77.78196716 C-12.82609554 73.16606669 -12.82979764 68.55024109 -12.82861328 63.93432617 C-12.82840992 58.01808263 -12.85572729 52.10231854 -12.8901577 46.1861887 C-12.91238729 41.63858329 -12.91645205 37.09109405 -12.91539383 32.54343987 C-12.91775514 30.36213463 -12.92660838 28.18082645 -12.94205856 25.99957466 C-12.96164084 22.94965058 -12.95591098 19.90077075 -12.94384766 16.85083008 C-12.95508667 15.94936752 -12.96632568 15.04790497 -12.97790527 14.11912537 C-12.93717727 10.069647 -12.79458501 7.82111742 -10.67764282 4.2842865 C-7.18258153 1.09491633 -4.71898788 0.00979738 0 0 Z " fill="#E04F5F" transform="translate(118.4580078125,198.7412109375)"/>
<path d="M0 0 C6.72668844 5.38135075 11.72866251 12.80656041 16.8125 19.6875 C18.14130355 21.47312044 19.47073021 23.25827734 20.80078125 25.04296875 C21.43838379 25.89938965 22.07598633 26.75581055 22.73291016 27.63818359 C24.96016633 30.61503856 27.22380241 33.56038804 29.5 36.5 C33.82815929 42.09276348 38.07361702 47.74561727 42.3125 53.40625 C43.00537109 54.33083008 43.69824219 55.25541016 44.41210938 56.20800781 C46.10843942 58.47173101 47.80439329 60.73573497 49.5 63 C49.49920441 62.31397202 49.49840881 61.62794403 49.49758911 60.92112732 C49.49514721 53.76654231 49.53440994 46.61303977 49.59765625 39.45874023 C49.61912919 36.79001816 49.62338861 34.12284655 49.62011719 31.45385742 C49.61725571 27.61303308 49.65262241 23.77414909 49.6953125 19.93359375 C49.68621857 18.74479111 49.67712463 17.55598846 49.66775513 16.3311615 C49.78141751 9.82172339 50.29818582 5.851375 55.02047729 1.17420959 C58.41699591 -1.52140619 61.24904072 -1.28339729 65.5 -1 C69.68189405 0.60842079 72.34450748 2.04849459 74.5 6 C74.9530936 9.14682275 74.91989868 12.27200467 74.90405273 15.44677734 C74.91091599 16.40332718 74.91777924 17.35987701 74.92485046 18.34541321 C74.94315902 21.50907211 74.93927468 24.67223695 74.93359375 27.8359375 C74.93815402 30.0354529 74.94345913 32.23496687 74.94947815 34.43447876 C74.95841756 39.04622177 74.95597711 43.65779169 74.94604492 48.26953125 C74.93456199 54.17673615 74.95475257 60.0833427 74.98396206 65.99046898 C75.00231859 70.53384187 75.00203252 75.07707129 74.99632454 79.62047195 C74.99617122 81.79815128 75.00222452 83.97584027 75.01461601 86.15348434 C75.02951116 89.20084765 75.01885871 92.24710465 75.00170898 95.29443359 C75.01137695 96.19230087 75.02104492 97.09016815 75.03100586 98.01524353 C74.96659941 103.48695532 74.18349933 106.67823385 70.5 111 C66.59397224 113.32250299 62.97715964 113.3997464 58.5 113 C54.45381763 111.01832643 52.28075677 108.76929159 49.6875 105.125 C48.9140625 104.06023437 48.140625 102.99546875 47.34375 101.8984375 C46.90289062 101.28967773 46.46203125 100.68091797 46.0078125 100.05371094 C42.96270907 95.90613806 39.81454562 91.83590329 36.6875 87.75 C30.45336022 79.58140272 24.2611842 71.38294092 18.10986328 63.15185547 C14.57804209 58.4309771 11.0381807 53.71611282 7.5 49 C7.49413376 49.67794113 7.48826752 50.35588226 7.48222351 51.05436707 C7.41828421 58.11114535 7.33386255 65.16746781 7.23754883 72.22387695 C7.20429675 74.85727936 7.17626576 77.49075309 7.15356445 80.12426758 C7.12002471 83.90997711 7.0677068 87.69503289 7.01171875 91.48046875 C7.00213387 93.2463459 7.00213387 93.2463459 6.99235535 95.04789734 C6.97256119 96.14866104 6.95276703 97.24942474 6.93237305 98.38354492 C6.92126999 99.34951096 6.91016693 100.31547699 6.89872742 101.31071472 C6.24495535 105.72019231 3.90254281 109.16454766 0.5 112 C-3.11930698 113.20643566 -5.69231005 113.32268559 -9.5 113 C-13.52344584 110.87440597 -15.81410913 109.21546974 -17.5 105 C-17.75726891 102.97565556 -17.75726891 102.97565556 -17.76742554 100.79420471 C-17.77595551 99.9629306 -17.78448547 99.13165649 -17.79327393 98.27519226 C-17.79236755 97.37170547 -17.79146118 96.46821869 -17.79052734 95.53735352 C-17.79724457 94.57919739 -17.80396179 93.62104126 -17.81088257 92.6338501 C-17.82988565 89.46548279 -17.83378778 86.297327 -17.8359375 83.12890625 C-17.8423632 80.92699598 -17.84909139 78.72508657 -17.85610962 76.5231781 C-17.86808773 71.90727763 -17.87178983 67.29145203 -17.87060547 62.67553711 C-17.87040211 56.75929356 -17.89771948 50.84352948 -17.93214989 44.92739964 C-17.95437948 40.37979423 -17.95844424 35.83230499 -17.95738602 31.2846508 C-17.95974733 29.10334557 -17.96860057 26.92203739 -17.98405075 24.7407856 C-18.00363303 21.69086152 -17.99790317 18.64198169 -17.98583984 15.59204102 C-17.99707886 14.69057846 -18.00831787 13.78911591 -18.01989746 12.8603363 C-17.97809951 8.70447633 -17.85961014 6.56602289 -15.58291626 2.98252869 C-10.98144212 -1.39717426 -6.09994208 -2.43997683 0 0 Z " fill="#E04F5F" transform="translate(227.5,200)"/>
<path d="M0 0 C0.78384567 -0.00524185 1.56769135 -0.0104837 2.37528992 -0.0158844 C4.02321192 -0.02226602 5.67117971 -0.02101805 7.3190918 -0.01245117 C9.80797666 -0.00396165 12.2945453 -0.03272071 14.78320312 -0.06445312 C26.37498891 -0.11585231 36.36888105 1.12307515 45.72265625 8.6484375 C50.01997616 12.93637461 54.1143595 18.53854779 54.94921875 24.62109375 C54.37789385 29.59978213 52.26133751 32.20399511 48.51171875 35.43359375 C44.77723799 36.67842067 41.38436142 37.08760741 37.51171875 36.43359375 C34.1335304 34.15981313 31.85173453 31.86104216 29.32421875 28.68359375 C27.6379146 26.17543025 27.6379146 26.17543025 24.51171875 25.43359375 C20.40012647 25.18464566 16.28849669 25.1628955 12.16992188 25.13842773 C10.81792745 25.12690136 9.46597876 25.10643852 8.11425781 25.0769043 C6.15593055 25.03413458 4.19703345 25.02064707 2.23828125 25.0078125 C1.06861816 24.99322998 -0.10104492 24.97864746 -1.30615234 24.96362305 C-5.13016012 25.52839326 -6.75539396 26.7564606 -9.48828125 29.43359375 C-10.6929188 31.84286886 -10.56721596 33.13970909 -10.36328125 35.80859375 C-10.31945312 36.57945312 -10.275625 37.3503125 -10.23046875 38.14453125 C-9.1403751 41.50660955 -7.43048722 42.52722983 -4.48828125 44.43359375 C-0.99864498 45.00871697 -0.99864498 45.00871697 2.83203125 44.90234375 C3.88099075 44.91291809 3.88099075 44.91291809 4.95114136 44.92370605 C7.9201017 44.95295242 10.88839128 44.93672001 13.85742188 44.92431641 C26.45974454 44.91033867 38.10677074 46.11114528 47.51171875 55.43359375 C54.92438429 64.66573174 57.64734708 73.65194976 56.77490234 85.43408203 C55.65018039 93.97904756 51.21057513 101.71672493 44.51171875 107.015625 C34.50110626 114.15861412 25.06659244 114.94426337 13.05615234 114.87963867 C10.64854129 114.8711355 8.24331492 114.89994521 5.8359375 114.93164062 C-7.21264909 114.99220791 -17.83695016 112.92473677 -27.48828125 103.43359375 C-30.27353494 100.10634474 -31.7207885 96.71049841 -32.05078125 92.37109375 C-31.32842389 87.31459226 -30.14083488 85.92012222 -26.48828125 82.43359375 C-23.23038455 80.12153803 -20.42572767 79.96110018 -16.48828125 80.43359375 C-13.13899293 82.31756843 -10.73873921 84.14619002 -8.2109375 87.046875 C-3.171559 91.25154323 3.89698417 90.06728697 10.07421875 89.93359375 C11.38841797 89.93617188 12.70261719 89.93875 14.05664062 89.94140625 C22.29436448 89.99685551 22.29436448 89.99685551 29.51171875 86.43359375 C31.83574826 83.22421966 31.98742566 80.31853354 31.51171875 76.43359375 C29.36081424 73.0959833 28.30759076 71.69888442 24.51171875 70.43359375 C22.12660666 70.32823755 19.73891223 70.27832821 17.3515625 70.2578125 C15.90298066 70.23458939 14.45441295 70.21047109 13.00585938 70.18554688 C10.7372933 70.15066087 8.46923921 70.12121329 6.20043945 70.10766602 C-6.3187621 70.01840989 -17.11552954 68.52415508 -26.48828125 59.43359375 C-28.81583134 56.5888103 -30.70760414 53.64546929 -32.48828125 50.43359375 C-32.82988281 49.84191406 -33.17148437 49.25023437 -33.5234375 48.640625 C-37.12237238 41.0577529 -36.96204077 30.74040555 -34.28125 22.90625 C-31.06752495 16.32421565 -27.45016752 10.39771313 -21.23828125 6.30859375 C-20.531875 5.83164063 -19.82546875 5.3546875 -19.09765625 4.86328125 C-12.68382168 1.3491144 -7.21459407 -0.02887323 0 0 Z " fill="#E05060" transform="translate(349.48828125,198.56640625)"/>
<path d="M0 0 C4.8339575 2.76543888 8.65295078 6.51690793 12.546875 10.45703125 C13.16304688 11.05128906 13.77921875 11.64554688 14.4140625 12.2578125 C24.38638827 22.62075933 30.25088546 37.28862484 35.546875 50.45703125 C35.83079102 51.15183594 36.11470703 51.84664062 36.40722656 52.5625 C36.68276367 53.25988281 36.95830078 53.95726562 37.2421875 54.67578125 C37.49242676 55.30419922 37.74266602 55.93261719 38.00048828 56.58007812 C38.546875 58.45703125 38.546875 58.45703125 38.546875 62.45703125 C5.546875 62.45703125 -27.453125 62.45703125 -61.453125 62.45703125 C-60.32663073 54.57157138 -60.32663073 54.57157138 -58.8515625 51.07421875 C-58.52994141 50.3059375 -58.20832031 49.53765625 -57.87695312 48.74609375 C-57.53083984 47.94945312 -57.18472656 47.1528125 -56.828125 46.33203125 C-56.46912109 45.49671875 -56.11011719 44.66140625 -55.74023438 43.80078125 C-47.99861158 26.05102882 -37.93417836 6.76979421 -19.453125 -1.54296875 C-12.70834595 -3.79122843 -6.43452124 -2.82759241 0 0 Z " fill="#FEFCFC" transform="translate(267.453125,88.54296875)"/>
<path d="M0 0 C33 0 66 0 100 0 C97.74465928 10.14903324 97.74465928 10.14903324 96.37109375 13.47265625 C96.06324951 14.21894287 95.75540527 14.96522949 95.43823242 15.73413086 C95.10799072 16.50249268 94.77774902 17.27085449 94.4375 18.0625 C94.08598877 18.88177979 93.73447754 19.70105957 93.37231445 20.54516602 C85.93499814 37.51497909 76.01350117 56.13628099 58.0625 63.875 C51.12218032 66.13873708 44.86378083 65.68686732 38.32421875 62.45703125 C33.69104369 59.55253663 29.86218235 55.84280685 26 52 C25.39414063 51.42894531 24.78828125 50.85789062 24.1640625 50.26953125 C12.05871773 37.85160715 2.81851368 16.91108207 0 0 Z " fill="#FEFCFC" transform="translate(206,361)"/>
<path d="M0 0 C30.515625 0 30.515625 0 37.2421875 6 C37.78101563 6.66 38.31984375 7.32 38.875 8 C39.70644531 8.99 39.70644531 8.99 40.5546875 10 C45.03197493 16.19559775 44.37219126 22.58910541 44.37060547 29.96142578 C44.37495961 32.22896518 44.41124315 34.4945259 44.44921875 36.76171875 C44.52034773 45.68061602 44.17949104 52.23056093 38.03515625 59.2421875 C37.38417969 59.78101563 36.73320312 60.31984375 36.0625 60.875 C35.08990234 61.70644531 35.08990234 61.70644531 34.09765625 62.5546875 C23.66643652 69.74193387 13.76511175 66 0 66 C0 44.22 0 22.44 0 0 Z " fill="#FEFDFD" transform="translate(130,223)"/>
<path d="M0 0 C18.81 0 37.62 0 57 0 C60.30917874 8.82447665 60.30917874 8.82447665 61.47265625 12.19921875 C66.95574708 27.78146233 73.83261003 42.64113176 82 57 C52.34756286 49.22633863 26.27594027 30.45652943 5.5625 8.3125 C5.00038818 7.71211914 4.43827637 7.11173828 3.85913086 6.49316406 C0 2.2596627 0 2.2596627 0 0 Z " fill="#FEFAFB" transform="translate(123,361)"/>
<path d="M0 0 C1.01037827 0.00222061 2.02075653 0.00444122 3.06175232 0.00672913 C4.77341331 0.00684242 4.77341331 0.00684242 6.51965332 0.00695801 C7.76129745 0.01211929 9.00294159 0.01728058 10.2822113 0.02259827 C12.17785072 0.02472069 12.17785072 0.02472069 14.11178589 0.02688599 C17.47705394 0.0315487 20.84225495 0.04053972 24.20750427 0.05158997 C27.63930175 0.06180606 31.07110614 0.06638403 34.50291443 0.07142639 C41.2405633 0.08248071 47.9781803 0.09923742 54.71580505 0.12025452 C42.44423603 25.46121683 7.91073262 44.27072863 -17.09669495 54.18275452 C-17.88044495 54.49446594 -18.66419495 54.80617737 -19.47169495 55.12733459 C-21.38578943 55.85634204 -23.33319897 56.49669676 -25.28419495 57.12025452 C-25.94419495 56.79025452 -26.60419495 56.46025452 -27.28419495 56.12025452 C-26.72731995 55.17408264 -26.17044495 54.22791077 -25.59669495 53.25306702 C-16.23434421 37.12626286 -9.46410796 20.66735593 -3.91334534 2.87586975 C-2.98757234 0.29254278 -2.81449461 0.14817286 0 0 Z " fill="#FEFAFB" transform="translate(334.28419494628906,360.87974548339844)"/>
<path d="M0 0 C-1.4457753 2.93392533 -2.97266373 5.81243456 -4.5390625 8.68359375 C-9.76745803 18.38568321 -14.71321002 28.05912576 -18.625 38.375 C-18.94291504 39.21087646 -19.26083008 40.04675293 -19.58837891 40.90795898 C-21.56300111 46.30587483 -22.72377461 51.25698574 -24 57 C-43.14 57 -62.28 57 -82 57 C-79.98791195 52.9758239 -77.59670387 50.11202371 -74.5625 46.875 C-74.02391357 46.29951416 -73.48532715 45.72402832 -72.93041992 45.13110352 C-57.18831342 28.48865657 -24.76871001 0 0 0 Z " fill="#FEFAFB" transform="translate(205,94)"/>
<path d="M0 0 C31.38172622 7.5694616 62.08777166 29.91868304 82 55 C82 55.66 82 56.32 82 57 C62.86 57 43.72 57 24 57 C23.01 53.04 22.02 49.08 21 45 C19.71425387 41.4214714 18.39955985 37.93882504 16.9375 34.4375 C16.55263428 33.50437988 16.16776855 32.57125977 15.77124023 31.60986328 C12.03575825 22.74455927 7.65529558 14.26291346 3.00219727 5.84912109 C1.956701 3.92011045 0.9711461 1.96733997 0 0 Z " fill="#FEFAFB" transform="translate(307,94)"/>
</svg>
